<?xml version="1.0" encoding="utf-8"?>
<!-- Generator: Adobe Illustrator 14.0.0, SVG Export Plug-In  -->
<!DOCTYPE svg PUBLIC "-//W3C//DTD SVG 1.1//EN" "http://www.w3.org/Graphics/SVG/1.1/DTD/svg11.dtd" [
	<!ENTITY ns_flows "http://ns.adobe.com/Flows/1.0/">
]>
<svg version="1.1"
	 xmlns="http://www.w3.org/2000/svg" xmlns:xlink="http://www.w3.org/1999/xlink" xmlns:a="http://ns.adobe.com/AdobeSVGViewerExtensions/3.0/"
	 x="0px" y="0px" width="201px" height="124px" viewBox="-25.453 -14.933 201 124" enable-background="new -25.453 -14.933 201 124"
	 xml:space="preserve">
<defs>
</defs>
<linearGradient id="SVGID_1_" gradientUnits="userSpaceOnUse" x1="13.207" y1="16.7153" x2="13.207" y2="29.6128" gradientTransform="matrix(1 0 0 -1 8.3999 69.2939)">
	<stop  offset="0.0056" style="stop-color:#3266A9"/>
	<stop  offset="1" style="stop-color:#0099FF"/>
</linearGradient>
<path fill="url(#SVGID_1_)" d="M24.829,40.569c-0.784-0.592-2.104-0.888-3.961-0.888h-1.376l-2.283,12.897h1.779
	c3.76,0,6.032-2.244,6.815-6.733c0.134-0.871,0.202-1.642,0.202-2.313C26.004,42.148,25.611,41.16,24.829,40.569z"/>
<linearGradient id="SVGID_2_" gradientUnits="userSpaceOnUse" x1="32.1064" y1="35.123" x2="32.1064" y2="47.2842" gradientTransform="matrix(1 0 0 -1 8.3999 69.2939)">
	<stop  offset="0.0056" style="stop-color:#3266A9"/>
	<stop  offset="1" style="stop-color:#0099FF"/>
</linearGradient>
<path fill="url(#SVGID_2_)" d="M40.267,25.549c1.074,0,1.611,0.381,1.611,1.143c0,0.701-0.321,1.201-0.962,1.5
	c-0.209,0.119-0.366,0.194-0.471,0.224c-0.065,0.019-0.158,0.037-0.271,0.056c1.98,1.621,3.702,3.544,5.097,5.699
	c0.117-0.321,0.21-0.658,0.277-1.013l0.09-1.008c0-1.223-0.568-2.081-1.701-2.574c0.776-0.402,1.376-0.94,1.801-1.611
	c0.425-0.672,0.638-1.418,0.638-2.239c0-0.642-0.198-1.265-0.593-1.868c-0.396-0.605-0.98-1.049-1.757-1.333
	c-0.433-0.193-0.876-0.328-1.332-0.402c-0.456-0.075-1.003-0.113-1.645-0.113c-0.82,0-1.663,0.124-2.529,0.37
	c-0.865,0.246-1.6,0.563-2.204,0.952c-0.604,0.389-1.13,0.907-1.578,1.557c-0.036,0.052-0.066,0.109-0.101,0.163
	c1.196,0.534,2.341,1.163,3.426,1.874C38.494,26.01,39.227,25.549,40.267,25.549z"/>
<linearGradient id="SVGID_3_" gradientUnits="userSpaceOnUse" x1="16.2036" y1="-2.8335" x2="16.2036" y2="46.3721" gradientTransform="matrix(1 0 0 -1 8.3999 69.2939)">
	<stop  offset="0.0056" style="stop-color:#3266A9"/>
	<stop  offset="1" style="stop-color:#0099FF"/>
</linearGradient>
<path fill="url(#SVGID_3_)" d="M45.272,34.171c-0.433,1.189-1.208,2.147-2.331,2.871c-1.425,0.918-3.182,1.377-5.271,1.377
	c-1.179,0-2.175-0.176-2.988-0.525c-0.813-0.35-1.444-0.864-1.891-1.543c-0.448-0.678-0.671-1.481-0.671-2.405l0.022-0.694
	l0.156-0.693h4.367l-0.028,0.179v0.179v0.246c0,1.164,0.628,1.746,1.884,1.746c0.635,0,1.201-0.217,1.696-0.649
	c0.495-0.434,0.742-0.94,0.742-1.522c0-0.522-0.194-0.887-0.582-1.097c-0.329-0.208-1.007-0.313-2.036-0.313l0.47-2.754l1.141-0.067
	c0.083-0.011,0.154-0.022,0.221-0.033c-0.674-0.551-1.378-1.067-2.11-1.546c-0.044,0.096-0.087,0.195-0.125,0.302h-4.185
	c0.192-0.837,0.49-1.56,0.884-2.175c-3.064-1.372-6.46-2.133-10.034-2.133C11.015,22.922,0,33.936,0,47.523
	c0,13.59,11.015,24.604,24.603,24.604c13.588,0,24.604-11.018,24.604-24.607C49.207,42.599,47.761,38.016,45.272,34.171z
	 M33.96,44.3l-0.168,1.275c-0.538,2.953-1.511,5.404-2.921,7.35c-1.298,1.836-3.016,3.18-5.153,4.028
	c-2.138,0.851-4.494,1.274-7.067,1.274H8.278l4.264-24.198h10.441c1.141,0,2.204,0.073,3.189,0.218
	c0.984,0.146,1.868,0.364,2.651,0.655c1.611,0.537,2.887,1.471,3.827,2.802c0.94,1.332,1.41,2.992,1.41,4.984L33.96,44.3z"/>
<linearGradient id="SVGID_4_" gradientUnits="userSpaceOnUse" x1="73.4502" y1="-21.6289" x2="59.2201" y2="68.2165" gradientTransform="matrix(1 0 0 -1 8.3999 69.2939)">
	<stop  offset="0" style="stop-color:#B2B2B2;stop-opacity:0"/>
	<stop  offset="0.2" style="stop-color:#B2B2B2"/>
	<stop  offset="0.8" style="stop-color:#B2B2B2"/>
	<stop  offset="1" style="stop-color:#B2B2B2;stop-opacity:0"/>
</linearGradient>
<rect x="74.422" fill="url(#SVGID_4_)" width="0.625" height="92"/>
<path fill="#335DFF" d="M134.243,21.441c8.228,0.046,16.36,6.885,16.36,16.854c0,0,0.05,2.532,0.055,5.599v1.281
	c0,0.577-0.005,1.158-0.011,1.739l-0.009,0.869c-0.035,2.451-0.125,4.73-0.299,5.913c-1.143,7.617-6.829,12.875-14.666,14.215
	c-7.065,1.379-11.255,2.176-12.608,2.443c-0.582,0.124-3.144,0.464-4.256,0.464c-8.614,0-16.433-6.453-16.556-16.854V52.25
	l0.006-0.292v-0.638c0-1.124,0.006-2.497,0.011-3.912l0.004-0.849c0.01-2.702,0.036-5.399,0.078-6.639
	c0.292-7.591,5.543-13.726,15.535-15.691l12.728-2.475C131.778,21.539,133.059,21.441,134.243,21.441z"/>
<path fill="#FFFFFF" d="M140.001,49.164l-7.739,1.502v7.566l-19.36,3.756v-18.87l7.74-1.499V52.92l11.62-2.255v-11.3l-11.62,2.253
	v-7.57l19.359-3.756V49.164z"/>
</svg>
